<?xml version="1.0" encoding="utf-8"?>
<!-- Generator: Adobe Illustrator 24.3.0, SVG Export Plug-In . SVG Version: 6.00 Build 0)  -->
<svg version="1.1" id="Laag_1" xmlns="http://www.w3.org/2000/svg" xmlns:xlink="http://www.w3.org/1999/xlink" x="0px" y="0px"
	 viewBox="0 0 283.5 76.4" style="enable-background:new 0 0 283.5 76.4;" xml:space="preserve">
<style type="text/css">
	.st0{fill:#3DAE2B;}
	.st1{fill:#FFFFFF;}
	.st2{fill:#E94F1D;}
</style>
<rect y="0" class="st0" width="283.5" height="76.4"/>
<rect y="24.4" class="st1" width="283.5" height="27.7"/>
<rect x="20.5" y="11.6" class="st1" width="53.2" height="53.2"/>
<g>
	<path d="M86.2,60.1h2.6c2,0,2.4,1.3,2.4,3.6c0,1.1,0.2,3.7-2.4,3.7h-2.5V60.1z M87.7,66.3h0.7c0.9,0,1.1-0.7,1.1-2.5
		c0-1.3,0-2.5-1.1-2.5h-0.8V66.3z"/>
	<path d="M91.8,67.4l2-7.3h2l2,7.3h-1.6l-0.4-1.6h-2.1l-0.4,1.6H91.8z M94.7,61.5L94.7,61.5L94,64.6h1.5L94.7,61.5z"/>
	<path d="M101.8,60.1h1.7l-2,3.3l2,4h-1.7l-1.8-3.8h0v3.8h-1.5v-7.3h1.5v3.1h0L101.8,60.1z"/>
	<path d="M104.2,67.4v-7.3h2.7c1.2,0,2.1,0.3,2.1,1.9c0,0.8-0.4,1.5-1.2,1.6v0c1.1,0.2,1.4,0.9,1.4,1.9c0,1.9-1.6,1.9-2.3,1.9H104.2
		z M105.7,63.1h1c0.3,0,0.8-0.2,0.8-0.9c0-0.5-0.4-0.9-0.9-0.9h-0.9V63.1z M105.7,66.3h0.9c0.3,0,1.1,0,1.1-1c0-0.6-0.2-1-1-1h-0.9
		V66.3z"/>
	<path d="M110.4,67.4v-7.3h4v1.1h-2.5V63h2.3v1.1h-2.3v2.1h2.5v1.1H110.4z"/>
	<path d="M115.5,60.1h2.6c2,0,2.4,1.3,2.4,3.6c0,1.1,0.2,3.7-2.4,3.7h-2.5V60.1z M117,66.3h0.7c0.9,0,1.1-0.7,1.1-2.5
		c0-1.3,0-2.5-1.1-2.5H117V66.3z"/>
	<path d="M121.7,67.4v-7.3h4v1.1h-2.5V63h2.3v1.1h-2.3v2.1h2.5v1.1H121.7z"/>
	<path d="M130,60.1h1.7l-2,3.3l2,4h-1.7l-1.8-3.8h0v3.8h-1.5v-7.3h1.5v3.1h0L130,60.1z"/>
	<path d="M135.6,60.1h1.7l-2,3.3l2,4h-1.7l-1.8-3.8h0v3.8h-1.5v-7.3h1.5v3.1h0L135.6,60.1z"/>
	<path d="M138,67.4v-7.3h1.5v7.3H138z"/>
	<path d="M140.8,67.4v-7.3h2.1l1.9,5.1h0v-5.1h1.4v7.3h-2l-2-5.4h0v5.4H140.8z"/>
	<path d="M150.9,62.3c0-0.7-0.1-1.3-0.9-1.3c-1,0-1,1.3-1,2.7c0,2.3,0.2,2.7,1.1,2.7c0.3,0,0.5-0.1,0.8-0.1v-1.6h-0.8v-1.1h2.4v3.7
		c-0.4,0.1-1.5,0.2-2.1,0.2c-2.6,0-2.9-1.1-2.9-3.8c0-1.8,0.1-3.7,2.6-3.7c1.5,0,2.4,0.8,2.3,2.4H150.9z"/>
	<path d="M156,67.4v-7.3h4v1.1h-2.5V63h2.3v1.1h-2.3v2.1h2.5v1.1H156z"/>
	<path d="M161.1,67.4v-7.3h2.1l1.9,5.1h0v-5.1h1.4v7.3h-2l-2-5.4h0v5.4H161.1z"/>
	<path d="M170.1,63.7c0-1.9,0-3.8,2.5-3.8s2.5,1.8,2.5,3.8c0,1.9,0,3.8-2.5,3.8S170.1,65.6,170.1,63.7z M173.6,63.7
		c0-1.9-0.1-2.7-1-2.7s-1,0.8-1,2.7c0,1.9,0.1,2.7,1,2.7S173.6,65.6,173.6,63.7z"/>
	<path d="M176.3,67.4v-7.3h2.1l1.9,5.1h0v-5.1h1.4v7.3h-2l-2-5.4h0v5.4H176.3z"/>
	<path d="M183.1,60.1h2.6c2,0,2.4,1.3,2.4,3.6c0,1.1,0.2,3.7-2.4,3.7h-2.5V60.1z M184.7,66.3h0.7c0.9,0,1.1-0.7,1.1-2.5
		c0-1.3,0-2.5-1.1-2.5h-0.8V66.3z"/>
	<path d="M189.3,67.4v-7.3h4v1.1h-2.5V63h2.3v1.1h-2.3v2.1h2.5v1.1H189.3z"/>
	<path d="M195.9,67.4h-1.5v-7.3h2.8c1,0,1.7,0.7,1.7,1.9c0,0.9-0.4,1.6-1.4,1.8v0c0.3,0,1.3,0.1,1.3,1.4c0,0.5,0,1.8,0.2,2.2h-1.5
		c-0.2-0.4-0.2-0.9-0.2-1.4c0-0.9,0.1-1.6-1.1-1.6h-0.4V67.4z M195.9,63.2h0.7c0.6,0,0.8-0.6,0.8-1.1c0-0.7-0.3-1-0.8-1h-0.7V63.2z"
		/>
	<path d="M203.3,63v-2.9h1.5v7.3h-1.5v-3.3h-1.8v3.3H200v-7.3h1.5V63H203.3z"/>
	<path d="M206.1,63.7c0-1.9,0-3.8,2.5-3.8s2.5,1.8,2.5,3.8c0,1.9,0,3.8-2.5,3.8S206.1,65.6,206.1,63.7z M209.6,63.7
		c0-1.9-0.1-2.7-1-2.7s-1,0.8-1,2.7c0,1.9,0.1,2.7,1,2.7S209.6,65.6,209.6,63.7z"/>
	<path d="M217.3,60.1v5.2c0,1.1-0.6,2.3-2.5,2.3c-1.7,0-2.5-0.9-2.5-2.3v-5.2h1.5v5.1c0,0.9,0.4,1.3,0.9,1.3c0.7,0,1-0.4,1-1.3v-5.1
		H217.3z"/>
	<path d="M218.6,60.1h2.6c2,0,2.4,1.3,2.4,3.6c0,1.1,0.2,3.7-2.4,3.7h-2.5V60.1z M220.1,66.3h0.7c0.9,0,1.1-0.7,1.1-2.5
		c0-1.3,0-2.5-1.1-2.5h-0.8V66.3z"/>
	<path d="M226.8,67.5c-1.9,0-2.3-1.1-2.2-2.4h1.5c0,0.7,0,1.3,0.9,1.3c0.5,0,0.8-0.3,0.8-0.8c0-1.3-3.1-1.4-3.1-3.6
		c0-1.1,0.5-2.1,2.4-2.1c1.5,0,2.2,0.7,2.1,2.2h-1.5c0-0.5-0.1-1.1-0.7-1.1c-0.5,0-0.8,0.3-0.8,0.8c0,1.4,3.1,1.3,3.1,3.6
		C229.3,67.3,227.9,67.5,226.8,67.5z"/>
	<path d="M230.4,67.4v-7.3h2.7c1.2,0,2.1,0.3,2.1,1.9c0,0.8-0.4,1.5-1.2,1.6v0c1.1,0.2,1.4,0.9,1.4,1.9c0,1.9-1.6,1.9-2.3,1.9H230.4
		z M232,63.1h1c0.3,0,0.8-0.2,0.8-0.9c0-0.5-0.4-0.9-0.9-0.9H232V63.1z M232,66.3h0.9c0.3,0,1.1,0,1.1-1c0-0.6-0.2-1-1-1H232V66.3z"
		/>
	<path d="M236.6,67.4v-7.3h4v1.1h-2.5V63h2.3v1.1h-2.3v2.1h2.5v1.1H236.6z"/>
	<path d="M241.7,60.1h2.6c2,0,2.4,1.3,2.4,3.6c0,1.1,0.2,3.7-2.4,3.7h-2.5V60.1z M243.3,66.3h0.7c0.9,0,1.1-0.7,1.1-2.5
		c0-1.3,0-2.5-1.1-2.5h-0.8V66.3z"/>
	<path d="M249.4,67.4h-1.5v-7.3h2.8c1,0,1.7,0.7,1.7,1.9c0,0.9-0.4,1.6-1.4,1.8v0c0.3,0,1.3,0.1,1.3,1.4c0,0.5,0,1.8,0.2,2.2H251
		c-0.2-0.4-0.2-0.9-0.2-1.4c0-0.9,0.1-1.6-1.1-1.6h-0.4V67.4z M249.4,63.2h0.7c0.6,0,0.8-0.6,0.8-1.1c0-0.7-0.3-1-0.8-1h-0.7V63.2z"
		/>
	<path d="M253.5,67.4v-7.3h1.5v7.3H253.5z"/>
	<path d="M260.2,60.1v5.6c0,1.3-1,1.8-2.1,1.8c-2.1,0-2.2-0.9-2.2-2.6h1.6c0,0.6-0.1,1.5,0.7,1.5c0.3,0,0.6-0.3,0.6-0.6v-5.7H260.2z
		"/>
	<path d="M261.4,67.4v-7.3h3.8v1.1h-2.3v1.9h2.2v1.1h-2.2v3.2H261.4z"/>
</g>
<g>
	<g>
		<path d="M92.7,9.7c-0.5,0.7-1.2,2-1.9,3.2c0.3,0.2,0.4,0.4,0.5,0.7c0,0.1-0.1,0.2-0.3,0.1c-0.2,0-0.4,0-0.6,0
			c-0.6,1.1-1.1,2.1-1.4,2.9c-0.1,0.3-0.3,0.3-0.5,0.1c-0.1-0.2-0.3-0.5-0.3-0.8c0-0.2,0-0.5,0.2-0.8c0.1-0.4,0.3-0.7,0.5-1.3
			c-0.6,0.1-1.2,0.2-1.8,0.3c-0.3,0.1-0.5,0.1-0.6-0.1c-0.2-0.3-0.4-0.6-0.5-0.8c-0.1-0.2,0-0.4,0.1-0.5c1.1-1.3,3.8-3.5,5.6-4.6
			c0.2-0.2,0.6-0.2,0.7,0.1l0.4,0.6C93,9.1,93,9.2,92.7,9.7z M89.5,12.7c0.5-0.9,1.1-2,1.7-2.9c-1.4,1-2.9,2.1-4,3.2
			C87.9,12.8,88.7,12.7,89.5,12.7z"/>
		<path d="M100.3,15.2c-0.5,0.8-1.5,1.4-2.6,1.8c-0.7,1.8-1.8,3.9-2.9,4.4c-0.3,0.1-0.7,0.1-1-0.3c-0.2-0.3-0.4-0.7-0.4-1.1
			c0-1.3,1.4-2.7,3.1-3.3l0.2-0.5c-0.3,0.2-0.7,0.3-1,0.3c-0.8,0-1.3-0.6-1.3-1.4c0-2,2.4-4.3,3.7-4.3c0.5,0,0.8,0.3,0.9,0.6
			c0.1-0.1,0.1-0.2,0.2-0.4c0.2-0.3,0.4-0.3,0.6-0.1c0.1,0.2,0.2,0.4,0.2,0.7c0,0.4-0.2,0.8-0.5,1.5c-0.4,0.9-1,1.9-1.5,3
			c0.9-0.5,1.6-1.1,2.1-1.9c0.2-0.2,0.4-0.2,0.4,0.1C100.6,14.6,100.5,14.8,100.3,15.2z M94.8,19.1c-0.4,0.7-0.6,1.3-0.4,1.5
			c0.1,0.1,0.5-0.3,0.9-1.1c0.3-0.5,0.6-1.1,0.9-1.8C95.5,18.1,95.1,18.6,94.8,19.1z M97.6,14c0.5-0.9,0.8-1.6,0.8-2
			c0-0.2,0-0.3-0.1-0.3c-0.5,0-2.6,2.2-2.6,3.8c0,0.3,0.1,0.4,0.2,0.4C96.2,16,96.9,15.2,97.6,14z"/>
		<path d="M102.5,14.5c-0.3,0-0.7-0.1-1-0.3c-0.1,0.3-0.1,0.6-0.1,0.8c0,0.6,0.3,1,0.7,1c1.1,0,2-1,2.6-1.9c0.2-0.2,0.3-0.3,0.4,0
			c0,0.1,0.1,0.5-0.2,0.9c-0.6,0.9-1.7,1.5-2.8,1.5c-1.3,0-2-0.8-2-2c0-0.5,0.1-1,0.4-1.6c0.7-1.5,1.9-2.2,2.7-2.2
			c0.2,0,0.3,0,0.5,0.1c0.4,0.2,0.7,0.4,0.9,0.7c0.1,0.1,0.1,0.3,0.1,0.5C104.6,13.1,103.7,14.5,102.5,14.5z M101.7,13.7
			c0.1,0.1,0.2,0.1,0.3,0.1c0.3,0,0.8-0.4,1.1-0.8c0.4-0.5,0.7-1.2,0.5-1.3C103.4,11.5,102.4,12.4,101.7,13.7z"/>
		<path d="M107.1,11.7c0,0.1,0,0.2,0,0.3c0.6-0.6,1.3-1,1.8-1c0.4,0,0.8,0.5,0.8,1c0,0.3-0.3,0.8-0.7,1.5c-0.4,0.7-0.9,1.6-0.9,2.1
			c0,0.3,0.1,0.5,0.3,0.5c0.5,0,1.2-0.9,1.7-1.8c0.1-0.3,0.3-0.3,0.5-0.1c0.1,0.2,0.1,0.6-0.1,1c-0.4,0.8-1.4,1.5-2.2,1.5
			c-0.9,0-1.3-0.5-1.3-1.2c0-0.8,0.6-2,1.2-2.9c0.3-0.5,0.5-0.8,0.4-0.8c-0.1,0-0.8,0.4-1.6,1.3c-0.8,0.8-1.4,2.2-2,3.4
			c-0.1,0.2-0.3,0.3-0.5,0.1c-0.2-0.2-0.3-0.4-0.3-0.8c0-0.2,0-0.4,0.1-0.7c0.3-0.8,1.3-2.7,2.2-4c0.2-0.3,0.4-0.3,0.5,0
			C107,11.2,107.1,11.4,107.1,11.7z"/>
		<path d="M119.4,15.2c-0.3,0.9-1.4,1.5-2.2,1.5c-0.9,0-1.4-0.6-1.4-1.4c0-0.2,0-0.5,0.1-0.8c0.2-0.8,0.8-1.5,1.3-2.2
			c-0.4,0.2-0.7,0.2-1,0.2c-1.1,2.4-2.6,4.1-4.3,4.1c-1.3,0-2-0.8-2-1.9c0-0.5,0.1-1,0.4-1.6c0.7-1.4,1.9-2.2,2.7-2.2
			c0.2,0,0.3,0,0.5,0.1c0.4,0.2,0.6,0.4,0.9,0.7c0.1,0.1,0.1,0.3,0.1,0.5c0,0.4-0.2,1-0.6,1.5c-0.4,0.5-0.9,0.9-1.5,0.9
			c-0.3,0-0.7-0.1-1-0.3c-0.1,0.3-0.1,0.6-0.1,0.8c0,0.6,0.3,1.1,0.6,1.1c1.4,0,2.8-2,3.6-3.7c-0.3-0.2-0.4-0.4-0.4-0.6
			c0-0.7,0.9-1.8,1.4-1.8c0.3,0,0.4,0.2,0.4,0.5c0,0.3-0.1,0.7-0.3,1.2c0.4-0.1,0.8-0.3,1.2-0.6c0.2-0.1,0.4-0.2,0.6,0
			c0.2,0.2,0.4,0.6,0.4,1c0,0.2-0.1,0.3-0.2,0.5c-0.6,0.7-1.3,1.6-1.5,2.4c-0.1,0.2-0.1,0.4-0.1,0.6c0,0.4,0.1,0.6,0.3,0.6
			c0.5,0,1.3-0.9,1.7-1.8c0.1-0.3,0.3-0.3,0.5,0C119.5,14.4,119.6,14.8,119.4,15.2z M111.5,13.7c0.1,0.1,0.2,0.1,0.3,0.1
			c0.4,0,0.7-0.4,1-0.8c0.4-0.5,0.7-1.2,0.6-1.3c-0.3-0.2-1.2,0.6-1.8,1.7C111.6,13.5,111.6,13.6,111.5,13.7z"/>
		<path d="M122.6,10.9c0.5,0,0.8,0.3,0.9,0.6l0.3-0.4c0.2-0.3,0.4-0.3,0.6-0.1c0.2,0.3,0.4,0.9,0,1.6c-0.4,0.8-1.5,2.3-1.5,3.2
			c0,0.2,0.1,0.3,0.2,0.3c0.5,0,1.2-0.9,1.7-1.9c0.2-0.3,0.3-0.3,0.4,0c0.1,0.1,0.1,0.5-0.1,0.9c-0.4,0.8-1.3,1.5-2.1,1.5
			c-0.7,0-1.1-0.4-1.2-0.9c-0.4,0.4-1,0.8-1.6,0.8c-0.8,0-1.3-0.6-1.3-1.4c0-0.6,0.3-1.4,0.8-2.1C120.7,11.5,121.8,10.9,122.6,10.9z
			 M122.1,14c0.5-0.9,0.8-1.6,0.8-2c0-0.2,0-0.3-0.2-0.3c-0.3,0-1.2,0.9-2,2c-0.4,0.7-0.7,1.4-0.7,1.8c0,0.3,0.1,0.4,0.2,0.4
			C120.7,16,121.4,15.2,122.1,14z"/>
		<path d="M124.8,13.9c0.3-0.7,0.8-1.8,1.4-2.8c-0.4-0.1-0.7-0.2-0.8-0.4c-0.2-0.3-0.1-0.4,0.3-0.4c0.3,0,0.7,0,1,0
			c0.4-0.8,0.7-1.2,1-1.7c0.2-0.3,0.4-0.3,0.5,0c0.1,0.2,0.2,0.4,0.2,0.6c0,0.3-0.1,0.6-0.2,1c0.4,0.1,0.7,0.3,0.8,0.4
			c0.1,0.3,0,0.4-0.3,0.4c-0.3,0-0.6,0-0.9,0c-0.5,0.9-1.3,2.3-1.8,3.3c-0.2,0.4-0.3,0.7-0.3,1c0,0.4,0.1,0.7,0.4,0.7
			c0.5,0,1.3-0.9,1.8-1.9c0.2-0.3,0.5-0.4,0.6,0c0.1,0.3,0,0.5-0.1,0.8c-0.2,0.4-1.1,1.6-2.3,1.6c-0.7,0-1.4-0.6-1.4-1.6
			C124.5,14.8,124.6,14.4,124.8,13.9z"/>
		<path d="M128.6,16.6c-0.9,0-1.2-0.5-1.2-1.2c0-0.3,0.1-0.6,0.2-0.9c0.3-1,1.2-2.6,1.8-3.3c0.2-0.3,0.4-0.3,0.6-0.1
			c0.3,0.3,0.4,0.9,0,1.6c-0.3,0.6-0.9,1.6-1.1,2.2c-0.1,0.3-0.2,0.6-0.2,0.8s0.1,0.3,0.2,0.3c0.6,0,1.3-0.9,1.7-1.9
			c0.1-0.3,0.3-0.2,0.4,0c0.1,0.2,0.1,0.6-0.1,0.9C130.3,16.1,129.4,16.6,128.6,16.6z M130.3,9.5c0.4,0,0.8,0.5,0.8,0.9
			c0,0.4-0.2,0.7-0.6,0.7c-0.4,0-0.8-0.4-0.8-0.9C129.7,9.9,130,9.5,130.3,9.5z"/>
		<path d="M132.8,14.5c-0.3,0-0.7-0.1-1-0.3c-0.1,0.3-0.1,0.6-0.1,0.8c0,0.6,0.3,1,0.7,1c1.1,0,2-1,2.6-1.9c0.2-0.2,0.3-0.3,0.4,0
			c0,0.1,0.1,0.5-0.2,0.9c-0.6,0.9-1.7,1.5-2.8,1.5c-1.3,0-2-0.8-2-2c0-0.5,0.1-1,0.4-1.6c0.7-1.5,1.9-2.2,2.7-2.2
			c0.2,0,0.3,0,0.5,0.1c0.4,0.2,0.7,0.4,0.9,0.7c0.1,0.1,0.1,0.3,0.1,0.5C134.9,13.1,134,14.5,132.8,14.5z M132,13.7
			c0.1,0.1,0.2,0.1,0.3,0.1c0.3,0,0.8-0.4,1.1-0.8c0.4-0.5,0.7-1.2,0.5-1.3C133.7,11.5,132.6,12.4,132,13.7z"/>
		<path d="M134.9,13.6c0.3-0.2,0.5-0.2,0.5,0.2c0.5-0.7,0.9-1.4,1.3-2c0.1-0.5,0.2-0.8,0.5-1.1c0.2-0.2,0.5-0.3,0.7-0.3
			c0.4,0,0.5,0.3,0,1c0,0.2,0,0.4,0,0.6c0,1,0.2,1.9,0.2,2.6c0,0.3-0.1,0.7-0.2,1c0.6-0.4,1-0.9,1.2-1.5c0.1-0.3,0.3-0.2,0.4,0
			c0.1,0.1,0.1,0.5-0.1,1c-0.5,1-1.5,1.5-2.6,1.5c-0.8,0-1.7-0.2-2.1-1.1c-0.2-0.3-0.2-0.6-0.2-0.9
			C134.5,14.2,134.6,13.8,134.9,13.6z M136.8,14.4c0-0.4,0-0.9,0-1.3c-0.3,0.5-0.7,1.1-1.1,1.7c0.2,0.7,0.5,1.1,0.8,1.1
			C136.7,16,136.8,15.3,136.8,14.4z"/>
		<path d="M146.8,9.5c-0.4,1.7-2,3.3-3.2,4.1c-0.3,0.7-0.5,1.3-0.5,1.8c0,0.3,0.1,0.6,0.3,0.6c0.6,0,1.5-0.9,2-1.9
			c0.2-0.3,0.5-0.3,0.6,0c0.1,0.2,0,0.5-0.1,0.9c-0.2,0.4-1.2,1.6-2.4,1.6c-0.9,0-1.4-0.5-1.4-1.5c0-0.2,0-0.5,0.1-0.8
			c0.5-2.3,2.1-4.9,3.5-6.3c0.3-0.3,0.5-0.3,0.8-0.1c0.3,0.3,0.5,0.7,0.5,1C146.8,9.2,146.8,9.3,146.8,9.5z M145.2,10.6
			c-0.4,0.6-1,1.7-1.1,1.9c0.6-0.6,1.1-1.2,1.4-1.8c0.5-0.8,0.7-1.4,0.6-1.5C146,9.3,145.6,9.8,145.2,10.6z"/>
		<path d="M148.9,10.9c0.5,0,0.8,0.3,0.9,0.6l0.3-0.4c0.2-0.3,0.4-0.3,0.6-0.1c0.2,0.3,0.4,0.9,0,1.6c-0.4,0.8-1.5,2.3-1.5,3.2
			c0,0.2,0.1,0.3,0.2,0.3c0.5,0,1.2-0.9,1.7-1.9c0.2-0.3,0.3-0.3,0.4,0c0.1,0.1,0.1,0.5-0.1,0.9c-0.4,0.8-1.3,1.5-2.1,1.5
			c-0.7,0-1.1-0.4-1.2-0.9c-0.4,0.4-1,0.8-1.6,0.8c-0.8,0-1.3-0.6-1.3-1.4c0-0.6,0.3-1.4,0.8-2.1C147,11.5,148.2,10.9,148.9,10.9z
			 M148.4,14c0.5-0.9,0.8-1.6,0.8-2c0-0.2,0-0.3-0.2-0.3c-0.3,0-1.2,0.9-2,2c-0.4,0.7-0.7,1.4-0.7,1.8c0,0.3,0.1,0.4,0.2,0.4
			C147.1,16,147.7,15.2,148.4,14z"/>
		<path d="M153.4,11.7c0,0.1,0,0.2,0,0.3c0.6-0.6,1.3-1,1.8-1c0.4,0,0.8,0.5,0.8,1c0,0.3-0.3,0.8-0.7,1.5c-0.4,0.7-0.9,1.6-0.9,2.1
			c0,0.3,0.1,0.5,0.3,0.5c0.5,0,1.2-0.9,1.7-1.8c0.1-0.3,0.3-0.3,0.5-0.1c0.1,0.2,0.1,0.6-0.1,1c-0.4,0.8-1.4,1.5-2.2,1.5
			c-0.9,0-1.3-0.5-1.3-1.2c0-0.8,0.6-2,1.2-2.9c0.3-0.5,0.5-0.8,0.4-0.8c-0.1,0-0.8,0.4-1.6,1.3c-0.8,0.8-1.4,2.2-2,3.4
			c-0.1,0.2-0.3,0.3-0.5,0.1c-0.2-0.2-0.3-0.4-0.3-0.8c0-0.2,0-0.4,0.1-0.7c0.3-0.8,1.3-2.7,2.2-4c0.2-0.3,0.4-0.3,0.5,0
			C153.4,11.2,153.4,11.4,153.4,11.7z"/>
		<path d="M162.1,15.2c-0.5,0.8-1.5,1.4-2.6,1.8c-0.7,1.8-1.8,3.9-2.9,4.4c-0.3,0.1-0.7,0.1-1-0.3c-0.2-0.3-0.4-0.7-0.4-1.1
			c0-1.3,1.4-2.7,3.1-3.3l0.2-0.5c-0.3,0.2-0.7,0.3-1,0.3c-0.8,0-1.3-0.6-1.3-1.4c0-2,2.4-4.3,3.7-4.3c0.5,0,0.8,0.3,0.9,0.6
			c0.1-0.1,0.1-0.2,0.2-0.4c0.2-0.3,0.4-0.3,0.6-0.1c0.1,0.2,0.2,0.4,0.2,0.7c0,0.4-0.2,0.8-0.5,1.5c-0.4,0.9-1,1.9-1.5,3
			c0.9-0.5,1.6-1.1,2.1-1.9c0.2-0.2,0.4-0.2,0.4,0.1C162.4,14.6,162.3,14.8,162.1,15.2z M156.5,19.1c-0.4,0.7-0.6,1.3-0.4,1.5
			c0.1,0.1,0.5-0.3,0.9-1.1c0.3-0.5,0.6-1.1,0.9-1.8C157.3,18.1,156.8,18.6,156.5,19.1z M159.3,14c0.5-0.9,0.8-1.6,0.8-2
			c0-0.2,0-0.3-0.1-0.3c-0.5,0-2.6,2.2-2.6,3.8c0,0.3,0.1,0.4,0.2,0.4C158,16,158.7,15.2,159.3,14z"/>
	</g>
</g>
<path class="st2" d="M72.6,25.5V12.7h-51v12.7H0V51h21.6v12.7h51V51h210.9V25.5H72.6z M65.3,20v19.7L47.1,24.1L28.9,39.7V20H65.3z
	 M28.9,56.4V45.8l18.2-15.6l18.2,15.6v10.6H28.9z"/>
<path d="M52.4,23.1v18.4c-1.6-2.3-4.3-3.8-7.4-3.8c-5,0-9,4-9,9s4,9,9,9c3.1,0,5.7-1.5,7.4-3.8v3.3h4.1V23.1H52.4z M45,51.1
	c-2.4,0-4.4-2-4.4-4.4c0-2.4,2-4.4,4.4-4.4c2.4,0,4.4,2,4.4,4.4C49.4,49.1,47.4,51.1,45,51.1z"/>
<g>
	<path d="M86.8,29.7h4.7v7.3l5.3-7.3h5.5l-5.8,7.4l6.2,9.3H97l-5.5-8.9v8.9h-4.7V29.7z"/>
	<path d="M112.1,29.7h5.6l6.6,16.7h-5.2l-1.2-3.4h-6.7l-1.1,3.4h-4.6L112.1,29.7z M116.9,40l-2.2-7h-0.1l-2.3,7H116.9z"/>
	<path d="M131.9,41.1c0,0.7,0.1,2.6,2.8,2.6c0.4,0,2.5,0,2.5-1.9c0-0.8-0.3-1.3-1.4-1.6l-4.1-1.1c-1.2-0.3-4.1-1.1-4.1-4.6
		c0-2.7,2-5.2,7-5.2c6.5,0,6.8,3.5,6.8,5.3h-4.7c0-0.5,0-2.3-2.2-2.3c-1.3,0-2.2,0.8-2.2,1.8c0,1.2,1,1.5,1.7,1.7l3.1,0.8
		c2.2,0.6,4.9,1.3,4.9,4.8c0,3.7-3.2,5.4-7.4,5.4c-1.7,0-4.5-0.3-6.1-2c-1.2-1.3-1.2-3-1.3-3.7H131.9z"/>
	<path d="M157,29.7h7.1c2,0,4.6,0.2,6.4,1.4c2.5,1.7,3.1,4.4,3.1,6.9c0,3.7-1.2,6.4-4.6,7.7c-1.7,0.6-3.7,0.6-4.9,0.6H157V29.7z
		 M161.7,43.2h2c3.1,0,5-1.3,5-5.2c0-5.1-3.8-5.1-5.2-5.1l-1.8,0V43.2z"/>
	<path d="M180.1,31.6c2.1-2.1,5.3-2.3,6.5-2.3c6.7,0,8.5,4.8,8.5,8.9c0,6.7-4.7,8.7-8.7,8.7c-4.4,0-8.6-2.5-8.6-8.7
		C177.8,37,178,33.7,180.1,31.6z M186.4,43.4c3.3,0,3.9-3.1,3.9-5.4c0-2.3-0.6-3.5-1.1-4.2c-0.7-0.9-1.8-1.2-2.8-1.2
		c-3.1,0-3.9,2.6-3.9,5.5C182.6,40.8,183.3,43.4,186.4,43.4z"/>
	<path d="M204.8,29.7v9.9c0,0.9,0.1,1.8,0.5,2.5c0.6,0.9,1.7,1.4,2.8,1.4c2.9,0,3.3-2.4,3.3-4v-9.8h4.5v9.7c0,1.8-0.3,3.9-1.3,5.1
		c-1.6,2-4.6,2.4-6.7,2.4c-7.9,0-7.9-4.9-7.9-7.6l0-9.5H204.8z"/>
	<path d="M221.5,29.7h7.3l2.8,11.3l2.6-11.3l7.3,0l0,16.7h-4.4l0.2-14l-4,14h-4.2l-3.8-14.1l0.1,14.1h-4V29.7z"/>
	<path d="M252.2,29.7h5.6l6.6,16.7h-5.2l-1.2-3.4h-6.7l-1.1,3.4h-4.6L252.2,29.7z M257,40l-2.2-7h-0.1l-2.3,7H257z"/>
</g>
</svg>
