<svg xmlns="http://www.w3.org/2000/svg" viewBox="0 0 90 90"><defs><style>.cls-1{fill:#82a84d;}.cls-2{fill:#fff;}</style></defs><g id="Laag_2" data-name="Laag 2"><g id="Laag_1-2" data-name="Laag 1"><circle class="cls-1" cx="45" cy="45" r="45"/><path class="cls-2" d="M62.19,26.25H57.5V21.17A1.18,1.18,0,0,0,56.33,20H52.42a1.18,1.18,0,0,0-1.17,1.17v5.08H38.75V21.17A1.18,1.18,0,0,0,37.58,20H33.67a1.18,1.18,0,0,0-1.17,1.17v5.08H27.81a4.68,4.68,0,0,0-4.68,4.69V65.31A4.68,4.68,0,0,0,27.81,70H62.19a4.69,4.69,0,0,0,4.69-4.69V30.94A4.69,4.69,0,0,0,62.19,26.25ZM61.6,65.31H28.4a.59.59,0,0,1-.59-.58V35.62H62.19V64.73A.59.59,0,0,1,61.6,65.31Z"/></g></g></svg>